<?xml version="1.0" standalone="no"?>
<!DOCTYPE svg PUBLIC "-//W3C//DTD SVG 1.1//EN" "http://www.w3.org/Graphics/SVG/1.1/DTD/svg11.dtd" >
<svg xmlns="http://www.w3.org/2000/svg" xmlns:xlink="http://www.w3.org/1999/xlink" version="1.1">
<metadata>
Created by FontForge 20170731 at Thu Jan  4 05:38:32 2018
 By Aleksey,,,
Copyright (c) 2017 by Igor Kosinsky. All rights reserved.
</metadata>
<defs>
<font id="ftanima-Regular" horiz-adv-x="1200" >
  <font-face 
    font-family="ft anima"
    font-weight="400"
    font-stretch="normal"
    units-per-em="2048"
    panose-1="0 0 0 0 0 0 0 0 0 0"
    ascent="1638"
    descent="-410"
    x-height="1077"
    cap-height="1532"
    bbox="-7 -563 2354 1996"
    underline-thickness="120"
    underline-position="-630"
    unicode-range="U+0020-2588"
  />
<missing-glyph horiz-adv-x="678" 
 />
    <glyph glyph-name=".notdef" horiz-adv-x="678" 
 />
    <glyph glyph-name=".null" horiz-adv-x="0" 
 />
    <glyph glyph-name="nonmarkingreturn" horiz-adv-x="682" 
 />
    <glyph glyph-name="space" unicode=" " horiz-adv-x="678" 
 />
    <glyph glyph-name="exclam" unicode="!" horiz-adv-x="601" 
d="M390 0h-179v179h179v-179zM211 393v1137h179v-1137h-179z" />
    <glyph glyph-name="quotedbl" unicode="&#x22;" horiz-adv-x="607" 
d="M197 1270h-87l-50 388h186zM496 1270h-87l-50 388h186z" />
    <glyph glyph-name="numbersign" unicode="#" horiz-adv-x="1715" 
d="M654 605h349l65 319h-349zM1605 1103l-36 -179h-322l-65 -319h322l-37 -179h-322l-87 -426h-179l87 426h-349l-87 -426h-179l87 426h-322l37 179h322l65 319h-322l36 179h322l88 427h178l-87 -427h349l88 427h179l-88 -427h322z" />
    <glyph glyph-name="dollar" unicode="$" horiz-adv-x="1103" 
d="M599 891q87 -38 149.5 -76.5t120.5 -94.5t88 -131.5t30 -169.5q0 -169 -100 -285t-265 -147v-182h-165v182q-137 17 -241 92.5t-150 191.5l165 52q80 -169 295 -169q125 0 201.5 71t76.5 194q0 120 -63.5 188t-231.5 141q-373 161 -373 417q0 140 90 247.5t231 126.5v182
h165v-182q90 -7 177 -55.5t153 -127.5l-135 -107q-58 65 -115 92t-158 27q-106 0 -166 -54.5t-60 -156.5q0 -44 21.5 -83t63.5 -72t87.5 -58t108.5 -53z" />
    <glyph glyph-name="percent" unicode="%" horiz-adv-x="1915" 
d="M465 947q90 0 154 63.5t64 153.5q0 91 -64 155.5t-154 64.5q-91 0 -155.5 -64.5t-64.5 -155.5q0 -90 64.5 -153.5t155.5 -63.5zM847 1164q0 -158 -112 -270t-270 -112q-159 0 -271.5 112t-112.5 270q0 159 112.5 272t271.5 113q158 0 270 -113t112 -272zM1467 147
q90 0 153.5 64t63.5 154q0 91 -63.5 155t-153.5 64q-91 0 -155.5 -64t-64.5 -155q0 -90 64.5 -154t155.5 -64zM1467 749q158 0 269.5 -112.5t111.5 -271.5q0 -158 -111.5 -268.5t-269.5 -110.5q-159 0 -271.5 110.5t-112.5 268.5q0 159 112.5 271.5t271.5 112.5zM508 9
l782 1579l132 -66l-783 -1575l-129 62h-2z" />
    <glyph glyph-name="ampersand" unicode="&#x26;" horiz-adv-x="1371" 
d="M625 1548q139 0 251 -87t137 -216h-181q-17 65 -72 98.5t-133 33.5q-88 0 -152.5 -51t-64.5 -146q0 -101 67.5 -166.5t148.5 -65.5v-176q-143 0 -231 -78t-88 -210q0 -149 90 -239.5t232 -90.5q55 0 101.5 14.5t77 38t54.5 52t37.5 57t22.5 52t12 38.5l2 14h-210v161h576
v-161h-187q-1 -9 -3.5 -24.5t-15.5 -60.5t-31.5 -86t-56.5 -91.5t-86 -86.5t-123 -60.5t-165 -24.5q-96 0 -187 31.5t-165 90.5t-119 154t-45 211q0 66 17 124t44 98t60 73t66 52.5t60 33.5t44 19l17 5l-22 11t-49.5 34t-62.5 58.5t-49.5 84t-22.5 111.5q0 88 35.5 160.5
t94 117.5t129.5 69t146 24z" />
    <glyph glyph-name="quotesingle" unicode="'" horiz-adv-x="295" 
d="M197 1270h-87l-50 388h186z" />
    <glyph glyph-name="parenleft" unicode="(" horiz-adv-x="673" 
d="M323 766q5 -509 247 -1077l-131 -56q-254 592 -259 1132q-5 576 261 1115l128 -64q-251 -510 -246 -1050z" />
    <glyph glyph-name="parenright" unicode=")" horiz-adv-x="673" 
d="M350 766q5 540 -246 1050l128 64q266 -539 261 -1115q-5 -540 -259 -1132l-131 56q242 568 247 1077z" />
    <glyph glyph-name="asterisk" unicode="*" horiz-adv-x="1010" 
d="M809 1516l69 -115l-233 -140l233 -141l-69 -115l-227 137v-220h-134v220l-228 -137l-69 115l234 141l-234 140l69 115l228 -137v220h134v-220z" />
    <glyph glyph-name="plus" unicode="+" horiz-adv-x="1153" 
d="M650 1021v-383h383v-145v-2h-383v-383h-145h-2v383h-383v147h383v383h147z" />
    <glyph glyph-name="comma" unicode="," horiz-adv-x="457" 
d="M131 0v197h196v-198q0 -87 -35 -172q-24 -60 -84 -140l-81 56q50 66 71 118q26 63 29 139h-96z" />
    <glyph glyph-name="hyphen" unicode="-" horiz-adv-x="853" 
d="M100 504v146h652v-146h-652z" />
    <glyph glyph-name="period" unicode="." horiz-adv-x="458" 
d="M130 0v196h197v-196h-197z" />
    <glyph glyph-name="slash" unicode="/" horiz-adv-x="909" 
d="M-1 -189l784 1848l135 -57l-787 -1848l-131 57h-1z" />
    <glyph glyph-name="zero" unicode="0" horiz-adv-x="1359" 
d="M372 1171q-77 -163 -77 -405q0 -241 77 -406q97 -206 308 -206q210 0 307 206q77 165 77 406q0 242 -77 405q-96 206 -307 206q-212 0 -308 -206zM680 -14q-266 0 -418 206t-152 572q0 367 152.5 576t417.5 209t417 -208t152 -574t-152 -573.5t-417 -207.5z" />
    <glyph glyph-name="one" unicode="1" horiz-adv-x="787" 
d="M130 1085v207l446 295v-1587h-179v1257z" />
    <glyph glyph-name="two" unicode="2" horiz-adv-x="1161" 
d="M635 415l-205 -246h606v-169h-971q662 796 717 879q75 112 75 221q0 132 -76 204.5t-210 72.5q-105 0 -167.5 -44.5t-99.5 -150.5h-183q38 173 156.5 270t293.5 97q212 0 341 -123.5t129 -324.5q0 -74 -17.5 -136t-68 -141t-107.5 -151t-170 -207q-10 -11 -15 -17
t-13 -16t-15 -18z" />
    <glyph glyph-name="three" unicode="3" horiz-adv-x="1238" 
d="M1074 1532l-342 -536q196 -53 291 -181t95 -312q0 -238 -159.5 -377.5t-421.5 -139.5q-252 0 -449 165l129 126q158 -122 320 -122q105 0 194.5 37.5t148.5 118.5t59 192q0 168 -120 263t-327 95h-58l324 502h-516v169h832z" />
    <glyph glyph-name="four" unicode="4" horiz-adv-x="1357" 
d="M418 500h490v609zM1087 500h206v-170h-206v-330h-179v330h-851l1030 1257v-1087z" />
    <glyph glyph-name="five" unicode="5" horiz-adv-x="1204" 
d="M557 1033q236 0 384 -149.5t148 -390.5q0 -228 -152.5 -367.5t-397.5 -139.5q-303 0 -455 213l150 100q56 -78 129 -111.5t175 -33.5q164 0 265.5 91.5t101.5 246.5q0 174 -99 272t-272 98q-193 0 -330 -106l151 776h649v-170h-501l-70 -349q60 20 124 20z" />
    <glyph glyph-name="six" unicode="6" horiz-adv-x="1238" 
d="M627 155q152 0 235.5 97.5t83.5 241.5q0 142 -85.5 241t-233.5 99q-147 0 -233 -99t-86 -241q0 -144 83.5 -241.5t235.5 -97.5zM627 1004q210 0 355.5 -149t145.5 -361q0 -106 -34 -198.5t-96.5 -161.5t-158 -108.5t-212.5 -39.5q-155 0 -270.5 68.5t-173.5 183
t-58 256.5q0 130 60 237l14 25l523 832l147 -99l-318 -496q27 11 76 11z" />
    <glyph glyph-name="seven" unicode="7" horiz-adv-x="1213" 
d="M123 1363v169h1046l-848 -1584l-160 83l717 1332h-755z" />
    <glyph glyph-name="eight" unicode="8" horiz-adv-x="1212" 
d="M606 154h1q140 0 226 80t86 220q0 130 -91 217t-222 87t-221.5 -87t-90.5 -217q0 -141 86 -220.5t226 -79.5zM606 1377q-99 0 -158 -58t-59 -161q0 -98 59.5 -157.5t157.5 -59.5t157.5 59.5t59.5 157.5q0 103 -59 161t-158 58zM858 863q112 -62 173 -176.5t61 -232.5
q0 -202 -138.5 -335t-347.5 -133t-347.5 133t-138.5 335q0 118 61 232.5t173 176.5q-73 49 -110 129.5t-37 165.5q0 164 115 277t284 113q170 0 285 -113t115 -277q0 -85 -37 -165.5t-111 -129.5z" />
    <glyph glyph-name="nine" unicode="9" horiz-adv-x="1233" 
d="M616 1378q-152 0 -235.5 -97.5t-83.5 -241.5q0 -142 86 -241.5t234 -99.5q146 0 232.5 99.5t86.5 241.5q0 93 -34.5 168.5t-108.5 123t-177 47.5zM617 529q-138 0 -254 68.5t-182 185.5t-66 256q0 106 34 198.5t96.5 162t158.5 109.5t213 40t212.5 -40t158 -109.5
t96.5 -162t34 -198.5q0 -129 -60 -237l-14 -25l-523 -829l-146 96l317 495q-23 -10 -75 -10z" />
    <glyph glyph-name="colon" unicode=":" horiz-adv-x="457" 
d="M130 0v196h197v-196h-197zM130 695v196h197v-196h-197z" />
    <glyph glyph-name="semicolon" unicode=";" horiz-adv-x="457" 
d="M131 0v197h196v-198q0 -87 -35 -172q-24 -60 -84 -140l-81 56q50 66 71 118q26 63 29 139h-96zM130 695v196h197v-196h-197z" />
    <glyph glyph-name="less" unicode="&#x3c;" horiz-adv-x="819" 
d="M652 928l-315 -350l316 -351l-114 -88l-391 439l390 438z" />
    <glyph glyph-name="equal" unicode="=" horiz-adv-x="1038" 
d="M917 394h-799v147h799v-145v-2zM118 728v147h799v-145v-2h-799z" />
    <glyph glyph-name="greater" unicode="&#x3e;" horiz-adv-x="819" 
d="M280 139l-114 88l316 351l-315 350l114 88l390 -438z" />
    <glyph glyph-name="question" unicode="?" horiz-adv-x="1073" 
d="M453 1547q120 0 219 -43t161 -113.5t96 -157t34 -177.5q0 -198 -106 -329t-287 -151l-18 -2v-181h-179v334h84q151 0 236.5 88t85.5 243q0 79 -28 142t-74.5 100t-103.5 56.5t-120 19.5q-88 0 -154.5 -23.5t-133.5 -82.5l-110 135q92 79 183.5 110.5t214.5 31.5zM552 0
h-179v179h179v-179z" />
    <glyph glyph-name="at" unicode="@" horiz-adv-x="1885" 
d="M967 1691q231 0 418.5 -116t293 -316.5t105.5 -444.5q0 -55 -4.5 -106t-16 -114t-35 -114.5t-57.5 -95.5t-88.5 -69t-123.5 -25q-84 0 -139.5 32.5t-118.5 109.5q-39 -81 -116 -127.5t-178 -46.5q-176 0 -292.5 109.5t-116.5 272.5q0 88 48 171t139.5 138.5t203.5 55.5
q29 0 61 -9l-1 -142q-46 6 -89 1q-93 -12 -145.5 -75t-52.5 -140q0 -104 71 -169t182 -65q98 0 162 65.5t64 142.5v573h-434v139h590v-677q0 -35 9 -73.5t27.5 -76t52 -61.5t76.5 -24q59 0 100.5 36.5t62 99.5t29 127t8.5 137q0 156 -52.5 296.5t-144 243.5t-221.5 163.5
t-277 60.5q-154 0 -292.5 -60t-238 -162t-158 -243.5t-58.5 -298.5q0 -163 52.5 -303t148.5 -242.5t241 -160.5t322 -58q159 0 313 69h217q-111 -85 -249 -132t-281 -47q-192 0 -357 65t-281 179.5t-181.5 277t-65.5 352.5q0 179 69 341.5t185.5 280t277 186.5t336.5 69z
" />
    <glyph glyph-name="A" unicode="A" horiz-adv-x="1455" 
d="M722 1200l-272 -640h544zM1425 0h-194l-165 390h-687l-166 -390h-194l703 1610z" />
    <glyph glyph-name="B" unicode="B" horiz-adv-x="1221" 
d="M360 170h200q197 0 282.5 66t85.5 224q0 135 -93.5 210t-268.5 75h-206v-575zM531 1362h-171v-453h179q122 0 186 66t64 171q0 31 -4 56.5t-19.5 56.5t-42 52.5t-76 36t-116.5 14.5zM833 851q91 -29 155.5 -95.5t93 -142t28.5 -153.5q0 -217 -123 -338.5t-354 -121.5
h-452v1532h351q85 0 154.5 -17t114 -42.5t78 -63t51 -71.5t27.5 -74.5t12.5 -66t2.5 -51.5q0 -86 -30 -157t-109 -138z" />
    <glyph glyph-name="C" unicode="C" horiz-adv-x="1450" 
d="M852 1549q276 0 480 -206l-152 -102q-76 70 -153.5 103.5t-174.5 33.5q-154 0 -279.5 -78.5t-197.5 -218.5t-72 -313q0 -269 155 -441t395 -172q238 0 400 175l139 -117q-98 -109 -238.5 -168t-300.5 -59q-158 0 -295 58.5t-234 161.5t-152.5 248.5t-55.5 313.5
q0 219 96 398t264.5 281t375.5 102z" />
    <glyph glyph-name="D" unicode="D" horiz-adv-x="1445" 
d="M359 169h255q248 0 391 167t143 437q0 161 -63 294t-186.5 214t-286.5 81h-253v-1193zM180 1532h426q110 0 216 -32.5t198.5 -97.5t163 -155t111 -212.5t40.5 -261.5q0 -359 -195.5 -566t-533.5 -207h-426v1532z" />
    <glyph glyph-name="E" unicode="E" horiz-adv-x="1085" 
d="M359 744v-575h619v-169h-798v1532h776v-171h-597v-448h534v-169h-534z" />
    <glyph glyph-name="F" unicode="F" horiz-adv-x="961" 
d="M359 0h-179v1532h739v-170h-560v-448h461v-169h-461v-745z" />
    <glyph glyph-name="G" unicode="G" horiz-adv-x="1624" 
d="M832 745h660q17 -368 -173 -571q-85 -92 -207 -140t-260 -48q-158 0 -295 58.5t-234 161.5t-152.5 248.5t-55.5 313.5q0 219 96 398t265 281t376 102q142 0 274.5 -54t233.5 -153l-139 -113q-159 148 -369 148q-155 0 -280.5 -78.5t-197 -218t-71.5 -312.5
q0 -269 155 -441.5t394 -172.5q211 0 341 133q56 57 89 138t34 159h-484v161z" />
    <glyph glyph-name="H" unicode="H" horiz-adv-x="1414" 
d="M359 914h696v618h179v-1532h-179v744h-696v-744h-179v1532h179v-618z" />
    <glyph glyph-name="I" unicode="I" horiz-adv-x="599" 
d="M210 0v1531h179v-1531h-179z" />
    <glyph glyph-name="J" unicode="J" horiz-adv-x="1058" 
d="M23 131l102 141q73 -65 140.5 -91.5t166.5 -26.5q45 0 82 8.5t64 25.5t47 38t33 49.5t21.5 55.5t12.5 62t5.5 63t1.5 63v843h-466v170h645v-1021q0 -271 -107.5 -398t-340.5 -127q-250 0 -407 145z" />
    <glyph glyph-name="K" unicode="K" horiz-adv-x="1309" 
d="M359 0h-179v1532h179v-728l649 728h234l-588 -659l631 -873h-221l-537 749l-168 -183v-566z" />
    <glyph glyph-name="L" unicode="L" horiz-adv-x="1009" 
d="M968 0h-788v1532h179v-1363h609v-169z" />
    <glyph glyph-name="M" unicode="M" horiz-adv-x="1786" 
d="M892 443l447 1133l417 -1576h-185l-262 1018l-417 -1050l-417 1050l-262 -1018h-185l418 1576z" />
    <glyph glyph-name="N" unicode="N" horiz-adv-x="1566" 
d="M180 1580l1027 -1172v1124h179v-1579l-1027 1161v-1114h-179v1580z" />
    <glyph glyph-name="O" unicode="O" horiz-adv-x="1704" 
d="M852 155q239 0 394 172t155 441q0 263 -157 436.5t-392 173.5t-392 -173.5t-157 -436.5q0 -269 155 -441t394 -172zM852 1549q155 0 292 -59.5t234.5 -163t154 -248.5t56.5 -310q0 -168 -55.5 -313.5t-152.5 -248.5t-234 -161.5t-295 -58.5t-295 58.5t-234 161.5
t-152.5 248.5t-55.5 313.5q0 165 56.5 310t154 248.5t234.5 163t292 59.5z" />
    <glyph glyph-name="P" unicode="P" horiz-adv-x="1169" 
d="M358 799h220q57 0 107.5 17.5t92 51.5t66 91.5t24.5 131.5q0 271 -270 271h-240v-563zM180 1532h418q207 0 331 -120t124 -320q0 -193 -123 -321q-62 -64 -158 -102.5t-194 -38.5h-220v-630h-178v1532z" />
    <glyph glyph-name="Q" unicode="Q" horiz-adv-x="1714" 
d="M1089 580l188 -215q124 165 124 403q0 263 -157 436.5t-392 173.5t-392 -173.5t-157 -436.5q0 -269 155 -441t394 -172q172 0 307 94l-289 331h219zM1399 226l197 -226h-219l-100 115q-181 -129 -425 -129q-158 0 -295 58.5t-234 161.5t-152.5 248.5t-55.5 313.5
q0 165 56.5 310t154 248.5t234.5 163t292 59.5t292 -59.5t234.5 -163t154 -248.5t56.5 -310q0 -160 -49.5 -298.5t-140.5 -243.5z" />
    <glyph glyph-name="R" unicode="R" horiz-adv-x="1197" 
d="M359 1362v-567h231q123 0 199.5 78.5t76.5 206.5q0 78 -24.5 135t-67 88t-90.5 45t-104 14h-221zM692 637l456 -637h-222l-443 630h-124v-630h-179v1532h399q210 0 344 -125.5t134 -326.5q0 -335 -365 -443z" />
    <glyph glyph-name="S" unicode="S" horiz-adv-x="1173" 
d="M70 301l177 42q85 -188 304 -188q83 0 145 22.5t97 62.5t51.5 87.5t16.5 103.5q0 111 -66 179t-251 149q-80 35 -139.5 69t-117.5 82t-89 110t-31 135q0 60 14 115t47.5 106.5t82.5 89.5t124.5 61t168.5 23q98 0 192 -38.5t159 -107.5l-134 -109q-85 83 -217 83
q-124 0 -189.5 -55.5t-65.5 -167.5q0 -41 25.5 -80t70.5 -71t92 -56t103 -46q212 -82 307.5 -193.5t95.5 -277.5q0 -204 -131 -324.5t-352 -120.5q-68 0 -130.5 13t-132 45t-129.5 97.5t-98 159.5z" />
    <glyph glyph-name="T" unicode="T" horiz-adv-x="1108" 
d="M643 0h-179v1363h-451v169h1081v-169h-451v-1363z" />
    <glyph glyph-name="U" unicode="U" horiz-adv-x="1400" 
d="M181 572v960h179v-960q0 -193 88.5 -305.5t251.5 -112.5t252 112.5t89 305.5v960h179v-960q0 -86 -15.5 -166t-54 -157.5t-96 -135t-149 -92.5t-205.5 -35t-205 35t-148.5 92.5t-96 135t-54 157.5t-15.5 166z" />
    <glyph glyph-name="V" unicode="V" horiz-adv-x="1314" 
d="M658 -31l-651 1563h194l457 -1122l457 1122h194z" />
    <glyph glyph-name="W" unicode="W" horiz-adv-x="2138" 
d="M1497 445l435 1087h196l-631 -1563l-425 1093l-424 -1093l-631 1563h195l436 -1087l424 1116z" />
    <glyph glyph-name="X" unicode="X" horiz-adv-x="1186" 
d="M699 840l484 -840h-200l-388 668l-389 -668h-201l485 840l-399 692h200l304 -529l303 529h200z" />
    <glyph glyph-name="Y" unicode="Y" horiz-adv-x="1164" 
d="M587 839l369 693h205l-485 -882v-650h-179v649l-485 883h205z" />
    <glyph glyph-name="Z" unicode="Z" horiz-adv-x="1178" 
d="M151 1532h938l-747 -1362h747v-170h-1040l747 1362h-645v170z" />
    <glyph glyph-name="bracketleft" unicode="[" horiz-adv-x="768" 
d="M619 1838v-147h-293v-1780h293v-147h-440v2074h440z" />
    <glyph glyph-name="backslash" unicode="\" horiz-adv-x="917" 
d="M783 -246l-784 1848l132 57l787 -1848h-2z" />
    <glyph glyph-name="bracketright" unicode="]" horiz-adv-x="767" 
d="M440 -89v1780h-293v147h440v-2074h-440v147h293z" />
    <glyph glyph-name="asciicircum" unicode="^" horiz-adv-x="1071" 
d="M776 633l-241 429l-240 -429h-165l405 721l405 -721h-164z" />
    <glyph glyph-name="underscore" unicode="_" horiz-adv-x="1034" 
d="M2 -406v146h1030v-146h-1030z" />
    <glyph glyph-name="grave" unicode="`" horiz-adv-x="713" 
d="M443 1259l-346 424h201l346 -424h-201z" />
    <glyph glyph-name="a" unicode="a" horiz-adv-x="1049" 
d="M308 921v156h591v-1077h-157l-17 87q-76 -101 -235 -101q-177 0 -283.5 102.5t-106.5 276.5q0 94 43.5 179t131 141.5t199.5 56.5q33 0 69 -6v-157q-34 6 -61 6q-99 0 -156 -65t-57 -155q0 -104 62.5 -164.5t167.5 -60.5q101 0 168 63.5t67 144.5v573h-426z" />
    <glyph glyph-name="b" unicode="b" 
d="M627 140q143 0 223.5 105t80.5 294q0 182 -83.5 290.5t-220.5 108.5q-156 0 -234 -94.5t-78 -275.5v-58q0 -176 78.5 -273t233.5 -97zM627 1095q137 0 245 -71.5t168 -198.5t60 -286q0 -158 -62 -285t-170 -197.5t-241 -70.5q-179 0 -302 101l-10 -87h-165v1703h165v-729
q126 121 312 121z" />
    <glyph glyph-name="c" unicode="c" horiz-adv-x="1069" 
d="M605 1095q118 0 217 -49.5t167 -141.5l-129 -91q-97 125 -255 125q-104 0 -182.5 -59t-116 -148.5t-37.5 -192.5q0 -174 103.5 -286t259.5 -112q147 0 252 114l130 -99q-54 -56 -98.5 -89t-117.5 -56.5t-166 -23.5q-234 0 -383 154t-149 398q0 153 67 281.5t183.5 202
t254.5 73.5z" />
    <glyph glyph-name="d" unicode="d" 
d="M573 140q155 0 233.5 97t78.5 273v58q0 181 -78 275.5t-234 94.5q-137 0 -220.5 -108.5t-83.5 -290.5q0 -189 80.5 -294t223.5 -105zM573 1095q186 0 312 -121v729h165v-1703h-165l-10 87q-123 -101 -302 -101q-133 0 -241 70.5t-170 197.5t-62 285q0 159 60 286
t168 198.5t245 71.5z" />
    <glyph glyph-name="e" unicode="e" horiz-adv-x="1168" 
d="M295 695h617q-32 115 -116 179t-197 64q-111 0 -191 -63.5t-113 -179.5zM1080 547v-9h-811q0 -169 100 -284t265 -115q142 0 260 104l157 -69q-78 -98 -179 -143t-238 -45q-234 0 -384 155.5t-150 397.5q0 118 39 221.5t106 176.5t159 115t195 42q226 0 353.5 -148.5
t127.5 -398.5z" />
    <glyph glyph-name="f" unicode="f" horiz-adv-x="714" 
d="M525 1563q-76 0 -130 -66t-54 -176v-245h346v-156h-346v-920h-165v920h-150v156h150v241q0 179 92 290.5t257 111.5q149 0 256 -94l-92 -119q-65 57 -164 57z" />
    <glyph glyph-name="g" unicode="g" horiz-adv-x="1175" 
d="M868 920v157h279v-157h-279zM1013 122h-946v156h946v-156zM67 -108v205l473 -427l473 427v-205l-473 -430zM499 938q-84 0 -141.5 -61t-57.5 -154q0 -88 58.5 -149t140.5 -61q87 0 147 60t60 149q0 96 -59 156t-148 60zM499 358q-153 0 -260.5 105.5t-107.5 258.5
q0 159 106 265.5t262 106.5q159 0 267.5 -106.5t108.5 -265.5q0 -155 -108.5 -259.5t-267.5 -104.5z" />
    <glyph glyph-name="h" unicode="h" horiz-adv-x="1072" 
d="M923 643v-643h-165v643q0 160 -54.5 227.5t-162.5 67.5q-90 0 -158 -71t-68 -189v-678h-165v1702h165v-703q101 96 235 96q190 0 281.5 -117.5t91.5 -334.5z" />
    <glyph glyph-name="i" unicode="i" horiz-adv-x="485" 
d="M160 1309v164h165v-164h-165zM325 0h-165v1077h165v-1077z" />
    <glyph glyph-name="j" unicode="j" horiz-adv-x="470" 
d="M155 1308v165h165v-165h-165zM155 -187v1263h165v-1259q0 -157 -61 -247t-197 -133l-50 156q143 46 143 220z" />
    <glyph glyph-name="k" unicode="k" horiz-adv-x="995" 
d="M975 0h-198l-377 495l-85 -104v-391h-165v1702h165v-1079l391 454h204l-399 -469z" />
    <glyph glyph-name="l" unicode="l" horiz-adv-x="495" 
d="M165 0v1701h165v-1701h-165z" />
    <glyph glyph-name="m" unicode="m" horiz-adv-x="1594" 
d="M150 0v1077h1294v-1077h-165v920h-399v-920h-165v920h-400v-920h-165z" />
    <glyph glyph-name="n" unicode="n" horiz-adv-x="1108" 
d="M150 0v1076h808v-1076h-165v920h-478v-920h-165z" />
    <glyph glyph-name="o" unicode="o" horiz-adv-x="1268" 
d="M634 139q156 0 260.5 115t104.5 285t-104.5 284.5t-260.5 114.5q-151 0 -258 -115.5t-107 -283.5t107 -284t258 -116zM634 1095q234 0 384 -157t150 -399t-150 -397.5t-384 -155.5q-229 0 -381.5 156.5t-152.5 396.5t152.5 398t381.5 158z" />
    <glyph glyph-name="p" unicode="p" horiz-adv-x="1198" 
d="M627 140q137 0 220.5 108.5t83.5 290.5q0 189 -80.5 294.5t-223.5 105.5q-155 0 -233.5 -97.5t-78.5 -273.5v-58q0 -181 78 -275.5t234 -94.5zM627 1095q202 0 337.5 -158t135.5 -398q0 -242 -132.5 -397.5t-340.5 -155.5q-189 0 -312 118v-645h-165v1618h165l10 -86
q127 104 302 104z" />
    <glyph glyph-name="q" unicode="q" 
d="M573 140q156 0 234 94.5t78 275.5v58q0 176 -78.5 273.5t-233.5 97.5q-143 0 -223.5 -105.5t-80.5 -294.5q0 -182 83.5 -290.5t220.5 -108.5zM573 1095q175 0 302 -104l10 86h165v-1618h-165v645q-123 -118 -312 -118q-208 0 -340.5 155.5t-132.5 397.5q0 240 135.5 398
t337.5 158z" />
    <glyph glyph-name="r" unicode="r" horiz-adv-x="731" 
d="M316 0h-166v1076h166v-1076zM520 1094q59 0 100.5 -41.5t41.5 -100.5t-41.5 -100.5t-100.5 -41.5q-58 0 -99.5 41.5t-41.5 100.5t41.5 100.5t99.5 41.5z" />
    <glyph glyph-name="s" unicode="s" horiz-adv-x="841" 
d="M74 136l127 103q88 -100 192 -100q80 0 131.5 43t51.5 115q0 61 -46 110.5t-147 101.5q-43 23 -76 42.5t-69 48.5t-59.5 58t-38.5 67.5t-15 80.5q0 128 83.5 208.5t215.5 80.5q147 0 261 -147l-119 -90q-55 80 -142 80q-62 0 -98 -34t-36 -97q0 -47 39 -80.5t128 -79.5
q145 -74 214.5 -159.5t69.5 -193.5q0 -146 -99.5 -227t-248.5 -81q-198 0 -319 150z" />
    <glyph glyph-name="t" unicode="t" horiz-adv-x="566" 
d="M331 1077h216v-156h-216v-921h-165v921h-147v156h147v308h165v-308z" />
    <glyph glyph-name="u" unicode="u" horiz-adv-x="1082" 
d="M766 400v677h166v-677q0 -188 -100.5 -301t-290.5 -113q-184 0 -287.5 116t-103.5 298v677h165v-677q0 -45 12.5 -89t38 -83.5t71 -64t104.5 -24.5q62 0 108 24.5t70.5 64.5t35.5 83t11 89z" />
    <glyph glyph-name="v" unicode="v" horiz-adv-x="1017" 
d="M194 1077l314 -728l315 728h178l-493 -1114l-493 1114h179z" />
    <glyph glyph-name="w" unicode="w" horiz-adv-x="1587" 
d="M793 1123l314 -763l293 717h178l-476 -1115l-310 758l-308 -758l-477 1115h179l292 -717z" />
    <glyph glyph-name="x" unicode="x" horiz-adv-x="1026" 
d="M513 712l250 365h193l-348 -499l401 -578h-193l-303 443l-302 -443h-194l402 578l-349 499h193z" />
    <glyph glyph-name="y" unicode="y" horiz-adv-x="1018" 
d="M828 1077h174l-712 -1618h-175l312 713l-407 905h180l315 -698z" />
    <glyph glyph-name="z" unicode="z" horiz-adv-x="959" 
d="M82 1077h860l-628 -921h621v-156h-916l627 921h-564v156z" />
    <glyph glyph-name="braceleft" unicode="{" horiz-adv-x="585" 
d="M345 630v-494q0 -94 31 -159t109 -110v-157q-140 51 -212 160.5t-72 265.5v450q0 63 -26 63h-25v197h25q26 0 26 62v450q0 318 284 429v-157q-75 -42 -107.5 -108.5t-32.5 -163.5v-494q0 -67 -34 -117q34 -44 34 -117z" />
    <glyph glyph-name="bar" unicode="|" horiz-adv-x="606" 
d="M229 -563v2494h147v-2494h-147z" />
    <glyph glyph-name="braceright" unicode="}" horiz-adv-x="585" 
d="M240 136v494q0 73 34 117q-34 50 -34 117v494q0 97 -32.5 163.5t-107.5 108.5v157q284 -111 284 -429v-450q0 -62 26 -62h25v-197h-25q-26 0 -26 -63v-450q0 -156 -72 -265.5t-212 -160.5v157q78 45 109 110t31 159z" />
    <glyph glyph-name="asciitilde" unicode="~" horiz-adv-x="1299" 
d="M846 629q-99 0 -243 94q-108 71 -160 64q-41 -5 -87.5 -42.5t-75.5 -83.5l-121 77q44 69 116 125t151 66q61 8 121 -14t135 -72q116 -77 174 -70q52 7 93 46.5t82 121.5l129 -62q-22 -44 -44 -78.5t-57 -73.5t-82 -64.5t-103 -32.5q-9 -1 -28 -1z" />
    <glyph glyph-name="copyright" unicode="&#xa9;" horiz-adv-x="1900" 
d="M974 356q101 0 165 29.5t126 94.5l124 -89q-41 -41 -72.5 -66.5t-83 -56.5t-116 -46t-142.5 -14q-169 3 -304.5 82t-211.5 215t-76 303q0 168 74.5 308t203.5 220.5t285 80.5q132 0 243 -55.5t183 -158.5l-130 -68q-115 135 -296 135q-172 0 -284 -130.5t-112 -331.5
q0 -203 114 -326q115 -126 310 -126zM949 53q199 0 367.5 102t267 277t98.5 381t-98.5 381t-267 277t-367.5 102t-368 -102t-267 -277t-98 -381t98 -381t267 -277t368 -102zM949 1689q172 0 329.5 -69.5t271.5 -187t181.5 -279.5t67.5 -340t-67.5 -340t-181.5 -278.5
t-271 -185.5t-330 -69t-330 69t-271 185.5t-181.5 278.5t-67.5 340t67.5 340t181 279.5t271 187t330.5 69.5z" />
    <glyph glyph-name="guillemotleft" unicode="&#xab;" horiz-adv-x="1129" 
d="M1034 928l-315 -350l316 -351l-114 -88l-391 439l390 438zM500 1016l114 -88l-314 -350l315 -351l-114 -88l-391 439z" />
    <glyph glyph-name="uni00AD" unicode="&#xad;" 
d="M120 504v146h983v-146h-983z" />
    <glyph glyph-name="registered" unicode="&#xae;" horiz-adv-x="1901" 
d="M834 1212v-365h126q84 0 131.5 49t47.5 136q0 47 -14.5 82.5t-34 53.5t-46 28.5t-44 13t-34.5 2.5h-132zM1086 730l-21 -8l272 -432h-185l-254 424l-64 -1v-423h-155v1059h287q146 0 237.5 -88.5t91.5 -228.5q0 -103 -57 -184.5t-152 -117.5zM951 53q199 0 368 102
t267 277t98 381t-98 381t-267 277t-368 102t-367.5 -102t-267 -277t-98.5 -381t98.5 -381t267 -277t367.5 -102zM951 1690q173 0 330.5 -69.5t271 -187t181 -280t67.5 -340.5t-67.5 -339.5t-181 -278.5t-271 -186t-330.5 -69q-172 0 -329.5 69t-271.5 186t-181.5 278.5
t-67.5 339.5t67.5 340.5t181.5 280t271.5 187t329.5 69.5z" />
    <glyph glyph-name="guillemotright" unicode="&#xbb;" horiz-adv-x="1129" 
d="M208 139l-114 88l316 351l-315 350l114 88l390 -438zM514 227l315 351l-314 350l114 88l390 -438l-391 -439z" />
    <glyph glyph-name="germandbls" unicode="&#xdf;" horiz-adv-x="1163" 
d="M578 1371h-198v-538h189q137 0 211.5 74.5t74.5 211.5q0 71 -24 122.5t-65 78.5t-87.5 39t-100.5 12zM569 681h-189v-158h522v-152h-522v-371h-179v371h-159v152h159v158h-159v152h159v698h395q209 0 323.5 -108t114.5 -304q0 -197 -121 -317.5t-344 -120.5z" />
    <glyph glyph-name="ae" unicode="&#xe6;" horiz-adv-x="1564" 
d="M1478 1077l-329 -499l382 -577h-179l-329 494h-125v-495h-156l-17 87q-76 -101 -235 -101q-177 0 -283.5 102t-106.5 277q0 93 43.5 178t131 141.5t199.5 56.5q42 0 69 -6v-155q-21 5 -61 5q-100 0 -158.5 -65t-58.5 -155q0 -103 64.5 -164.5t169.5 -61.5q101 0 168 63.5
t67 144.5v574h-426v156h590v-426h117l284 426h179z" />
    <glyph glyph-name="edieresis" unicode="&#xeb;" horiz-adv-x="1135" 
d="M633 139q143 0 261 104l153 -71q-78 -97 -177 -141.5t-236 -44.5q-234 0 -384 155.5t-150 396.5q0 157 66.5 285t180.5 199.5t252 71.5q175 0 306 -111.5t163 -287.5h-156q-33 115 -116.5 179t-196.5 64q-112 0 -192 -63.5t-112 -179.5h617v-157h-643q0 -170 99.5 -284.5
t264.5 -114.5zM719 1427h165v-165h-165v165zM305 1427h165v-165h-165v165z" />
    <glyph glyph-name="eogonek" unicode="&#x119;" horiz-adv-x="1136" 
d="M633 139q143 0 261 104l153 -71q-78 -97 -177 -141.5t-236 -44.5q-234 0 -384 155.5t-150 396.5q0 157 66.5 285t180.5 199.5t252 71.5q175 0 306 -111.5t163 -287.5h-156q-33 115 -116.5 179t-196.5 64q-112 0 -192 -63.5t-112 -179.5h617v-157h-643q0 -170 99.5 -284.5
t264.5 -114.5z" />
    <glyph glyph-name="nacute" unicode="&#x144;" horiz-adv-x="1700" 
d="M1386 922v155h165v-1077h-165v691l-488 -538v-153h-164v91q-39 -50 -105 -77.5t-139 -27.5q-177 0 -283.5 102t-106.5 277q0 69 26 136t72.5 121t118 87t156.5 33q39 0 70 -7v-155q-21 5 -61 5q-100 0 -158.5 -65t-58.5 -155q0 -103 64.5 -164.5t169.5 -61.5
q101 0 168 63.5t67 144.5v574h-426v156h590v-692z" />
    <glyph glyph-name="ncaron" unicode="&#x148;" horiz-adv-x="1674" 
d="M308 920v156h1216v-1076h-165v920h-461v-920h-156l-17 86q-76 -101 -235 -101q-177 0 -283.5 102.5t-106.5 276.5q0 69 26 135.5t72.5 120.5t118 87t156.5 33q43 0 70 -6v-154q-23 4 -61 4q-100 0 -158.5 -65t-58.5 -155q0 -103 64.5 -164.5t169.5 -61.5q101 0 168 64
t67 145v573h-426z" />
    <glyph glyph-name="uni0163" unicode="&#x163;" horiz-adv-x="1785" 
d="M1581 1077v-921h175v-383h-156v227h-809v920h-478v-920h-164v1077h807v-921h460v921h165z" />
    <glyph glyph-name="afii10023" unicode="&#x401;" horiz-adv-x="1092" 
d="M359 744v-575h619v-169h-798v1532h776v-171h-597v-448h534v-169h-534zM690 1872h170v-170h-170v170zM307 1872h169v-170h-169v170z" />
    <glyph glyph-name="uni0402" unicode="&#x402;" horiz-adv-x="1079" 
d="M610 738q164 0 266.5 -102.5t102.5 -270.5q0 -175 -106.5 -277t-288.5 -102t-261 101l-17 -87h-156v1077h712v-156h-547v-565q0 -90 73.5 -153.5t177.5 -63.5q100 0 172 58t72 168q0 93 -52.5 155t-156.5 62q-57 0 -87 -11v153q36 14 96 14z" />
    <glyph glyph-name="afii10017" unicode="&#x410;" horiz-adv-x="1450" 
d="M722 1200l-272 -640h544zM1425 0h-194l-165 390h-687l-166 -390h-194l703 1610z" />
    <glyph glyph-name="afii10018" unicode="&#x411;" horiz-adv-x="1234" 
d="M359 169h214q112 0 185 19t111 59.5t52 91t14 126.5q0 137 -82.5 208.5t-238.5 71.5h-255v-576zM359 914h247q233 0 373 -123.5t140 -325.5q0 -227 -118 -346t-347 -119h-474v1532h800v-170h-621v-448z" />
    <glyph glyph-name="afii10019" unicode="&#x412;" horiz-adv-x="1220" 
d="M360 170h200q197 0 282.5 66t85.5 224q0 135 -93.5 210t-268.5 75h-206v-575zM531 1362h-171v-453h179q122 0 186 66t64 171q0 31 -4 56.5t-19.5 56.5t-42 52.5t-76 36t-116.5 14.5zM833 851q91 -29 155.5 -95.5t93 -142t28.5 -153.5q0 -217 -123 -338.5t-354 -121.5
h-452v1532h351q85 0 154.5 -17t114 -42.5t78 -63t51 -71.5t27.5 -74.5t12.5 -66t2.5 -51.5q0 -86 -30 -157t-109 -138z" />
    <glyph glyph-name="afii10020" unicode="&#x413;" horiz-adv-x="948" 
d="M359 0h-179v1532h756v-170h-577v-1362z" />
    <glyph glyph-name="afii10021" unicode="&#x414;" horiz-adv-x="1514" 
d="M386 170h742v1192h-606v-341q0 -283 -30 -494t-106 -357zM1307 1532v-1362h157v-445h-179v275h-1067v-275h-179v445h29q144 0 209.5 223.5t65.5 648.5v490h964z" />
    <glyph glyph-name="afii10022" unicode="&#x415;" horiz-adv-x="1095" 
d="M359 744v-575h619v-169h-798v1532h776v-171h-597v-448h534v-169h-534z" />
    <glyph glyph-name="afii10024" unicode="&#x416;" horiz-adv-x="1836" 
d="M1764 1532l-490 -693l542 -839h-216l-478 744h-114v-744h-179v744h-114l-478 -744h-216l541 839l-489 693h220l431 -618h105v618h179v-618h104l432 618h220z" />
    <glyph glyph-name="afii10025" unicode="&#x417;" horiz-adv-x="1182" 
d="M815 851q136 -74 194 -173.5t58 -225.5q0 -222 -143.5 -344t-403.5 -122q-309 0 -469 136l96 147q140 -115 364 -115q172 0 273 78.5t101 219.5q0 142 -99.5 217.5t-282.5 75.5h-61v169h44q80 0 144 22.5t101.5 59t56.5 77.5t19 82q0 222 -287 222q-156 0 -260 -74
l-87 139q130 107 347 107q215 0 342 -104.5t127 -280.5q0 -85 -41.5 -160t-132.5 -153z" />
    <glyph glyph-name="afii10026" unicode="&#x418;" horiz-adv-x="1511" 
d="M358 1532v-1109l973 1163v-1586h-179v1107l-973 -1160v1585h179z" />
    <glyph glyph-name="afii10027" unicode="&#x419;" horiz-adv-x="1511" 
d="M755 1699q-115 0 -222 66.5t-148 190.5l159 40q65 -143 211 -143q77 0 132 36.5t82 106.5l156 -40q-27 -84 -89.5 -144t-134 -86.5t-146.5 -26.5zM358 1532v-1109l973 1163v-1586h-179v1107l-973 -1160v1585h179z" />
    <glyph glyph-name="afii10028" unicode="&#x41a;" horiz-adv-x="1309" 
d="M1272 0h-216l-495 745h-202v-745h-179v1532h179v-617h192l449 617h220l-507 -692z" />
    <glyph glyph-name="afii10029" unicode="&#x41b;" horiz-adv-x="1516" 
d="M352 842v690h984v-1532h-179v1362h-627v-520q0 -172 -4 -277.5t-18.5 -214t-42.5 -168t-76 -109.5t-118 -69t-170 -19q-44 0 -69 5l34 166q24 -3 35 -3q62 0 105.5 14t71 58.5t43 82.5t22.5 131.5t8 157t1 204.5v14v13v14z" />
    <glyph glyph-name="afii10030" unicode="&#x41c;" horiz-adv-x="1773" 
d="M892 443l447 1133l417 -1576h-185l-262 1018l-417 -1050l-417 1050l-262 -1018h-185l418 1576z" />
    <glyph glyph-name="afii10031" unicode="&#x41d;" horiz-adv-x="1414" 
d="M359 914h696v618h179v-1532h-179v744h-696v-744h-179v1532h179v-618z" />
    <glyph glyph-name="afii10032" unicode="&#x41e;" horiz-adv-x="1705" 
d="M852 155q239 0 394 172t155 441q0 263 -157 436.5t-392 173.5t-392 -173.5t-157 -436.5q0 -269 155 -441t394 -172zM852 1549q155 0 292 -59.5t234.5 -163t154 -248.5t56.5 -310q0 -168 -55.5 -313.5t-152.5 -248.5t-234 -161.5t-295 -58.5t-295 58.5t-234 161.5
t-152.5 248.5t-55.5 313.5q0 165 56.5 310t154 248.5t234.5 163t292 59.5z" />
    <glyph glyph-name="afii10033" unicode="&#x41f;" horiz-adv-x="1415" 
d="M180 0v1532h1055v-1532h-179v1362h-697v-1362h-179z" />
    <glyph glyph-name="afii10034" unicode="&#x420;" horiz-adv-x="1168" 
d="M358 799h220q57 0 107.5 17.5t92 51.5t66 91.5t24.5 131.5q0 271 -270 271h-240v-563zM180 1532h418q207 0 331 -120t124 -320q0 -193 -123 -321q-62 -64 -158 -102.5t-194 -38.5h-220v-630h-178v1532z" />
    <glyph glyph-name="afii10035" unicode="&#x421;" horiz-adv-x="1478" 
d="M852 1549q276 0 480 -206l-152 -102q-76 70 -153.5 103.5t-174.5 33.5q-154 0 -279.5 -78.5t-197.5 -218.5t-72 -313q0 -269 155 -441t395 -172q238 0 400 175l139 -117q-98 -109 -238.5 -168t-300.5 -59q-158 0 -295 58.5t-234 161.5t-152.5 248.5t-55.5 313.5
q0 219 96 398t264.5 281t375.5 102z" />
    <glyph glyph-name="afii10036" unicode="&#x422;" horiz-adv-x="1106" 
d="M643 0h-179v1363h-451v169h1081v-169h-451v-1363z" />
    <glyph glyph-name="afii10037" unicode="&#x423;" horiz-adv-x="1174" 
d="M588 686l378 846h194l-686 -1532h-194l212 473l-478 1059h197z" />
    <glyph glyph-name="afii10038" unicode="&#x424;" horiz-adv-x="1780" 
d="M977 1187v-795q102 0 192.5 26.5t160 76.5t110.5 127.5t41 172.5q0 187 -133.5 289.5t-370.5 102.5zM803 392v795q-236 0 -369.5 -102.5t-133.5 -289.5q0 -95 40.5 -172.5t110 -127.5t160 -76.5t192.5 -26.5zM977 1568v-209q61 0 123 -8t130.5 -27t129.5 -47.5t117.5 -74
t97 -102t64.5 -135t24 -170.5q0 -118 -47 -222t-132.5 -182t-216.5 -123.5t-290 -45.5v-240h-174v240q-159 0 -290 45.5t-216.5 123.5t-132.5 182t-47 222q0 92 24 170.5t64.5 135t97 102t117.5 74t129.5 47.5t130.5 27t123 8v209h174z" />
    <glyph glyph-name="afii10039" unicode="&#x425;" horiz-adv-x="1214" 
d="M712 840l484 -840h-200l-388 668l-389 -668h-201l485 840l-399 692h200l304 -529l303 529h200z" />
    <glyph glyph-name="afii10040" unicode="&#x426;" horiz-adv-x="1447" 
d="M1209 1532v-1362h208v-444h-179v274h-1058v1532h179v-1362h671v1362h179z" />
    <glyph glyph-name="afii10041" unicode="&#x427;" horiz-adv-x="1204" 
d="M845 846v686h179v-1532h-179v667l-233 -63q-262 0 -397 152q-52 59 -73.5 128t-21.5 164v484h178v-484q0 -127 82.5 -199t235.5 -72z" />
    <glyph glyph-name="afii10042" unicode="&#x428;" horiz-adv-x="2112" 
d="M1146 169h608v1363h178v-1532h-1752v1532h179v-1363h608v1363h179v-1363z" />
    <glyph glyph-name="afii10043" unicode="&#x429;" horiz-adv-x="2167" 
d="M1932 1532v-1362h209v-445h-179v275h-1783v1532h179v-1362h608v1362h179v-1362h608v1362h179z" />
    <glyph glyph-name="afii10044" unicode="&#x42a;" horiz-adv-x="1308" 
d="M469 170h234q24 0 44.5 1t54.5 7t60.5 16t56.5 30.5t50 47.5t33 70t13 96q0 299 -326 299l-220 -66v-501zM469 847l228 67q234 -1 365.5 -132.5t131.5 -352.5q0 -195 -127 -312t-338 -117h-439v1362h-290v170h469v-685z" />
    <glyph glyph-name="afii10045" unicode="&#x42b;" horiz-adv-x="1614" 
d="M359 170h225q303 0 303 269q0 86 -24 146t-68 92t-96.5 46t-119.5 14l-220 -66v-501zM359 847l228 68q232 -1 355.5 -131.5t123.5 -353.5q0 -197 -122.5 -313.5t-333.5 -116.5h-430v1532h179v-685zM1256 0v1532h178v-1532h-178z" />
    <glyph glyph-name="afii10046" unicode="&#x42c;" horiz-adv-x="1197" 
d="M359 169h233q24 0 45 1t54.5 7t60.5 16.5t56.5 30.5t49.5 47.5t33.5 70.5t13.5 96q0 299 -327 299l-219 -66v-502zM359 847l227 67q234 -1 365.5 -132.5t131.5 -352.5q0 -196 -126.5 -312.5t-338.5 -116.5h-438v1532h179v-685z" />
    <glyph glyph-name="afii10047" unicode="&#x42d;" horiz-adv-x="1473" 
d="M609 1549q165 0 303.5 -55.5t236.5 -156t152.5 -245.5t54.5 -319q0 -236 -92 -415t-259 -275.5t-387 -96.5q-172 0 -321 60t-226 145l116 129q89 -82 199 -124t223 -42q251 0 400.5 161t157.5 430h-697v170h691q-13 140 -90.5 246t-198 161t-263.5 55q-98 0 -187.5 -35.5
t-154.5 -100.5l-133 117q101 101 217.5 146t257.5 45z" />
    <glyph glyph-name="afii10048" unicode="&#x42e;" horiz-adv-x="2080" 
d="M1237 154q238 0 389 171.5t151 441.5q0 174 -69.5 313.5t-193 218t-277.5 78.5q-153 0 -269 -79t-176.5 -217t-60.5 -314q0 -180 59.5 -318t175 -216.5t271.5 -78.5zM1237 1548q155 0 290.5 -59.5t231.5 -163t151 -248.5t55 -310q0 -225 -92.5 -403.5t-258.5 -278.5
t-377 -100q-155 0 -284 56.5t-217 157t-138.5 241t-53.5 305.5h-186v-745h-178v1532h178v-618h196q21 139 78 255.5t144 200.5t205.5 131t255.5 47z" />
    <glyph glyph-name="afii10049" unicode="&#x42f;" horiz-adv-x="1187" 
d="M579 794h249v568h-221q-56 0 -103.5 -12.5t-90 -42t-66.5 -85t-24 -133.5q0 -123 73.5 -209t182.5 -86zM608 1532h399v-1532h-179v629h-173l-405 -629h-209l416 646q-111 42 -183.5 111.5t-103.5 151.5t-31 180q0 201 129.5 322t339.5 121z" />
    <glyph glyph-name="afii10065" unicode="&#x430;" horiz-adv-x="1049" 
d="M308 921v156h591v-1077h-157l-17 87q-76 -101 -235 -101q-177 0 -283.5 102.5t-106.5 276.5q0 94 43.5 179t131 141.5t199.5 56.5q33 0 69 -6v-157q-34 6 -61 6q-99 0 -156 -65t-57 -155q0 -104 62.5 -164.5t167.5 -60.5q101 0 168 63.5t67 144.5v573h-426z" />
    <glyph glyph-name="afii10066" unicode="&#x431;" horiz-adv-x="1276" 
d="M650 140q156 0 256 112t100 287q0 31 -2.5 61t-11.5 71t-24 77t-42 72t-62 61.5t-88 41.5t-118 16q-164 0 -267 -108t-103 -283q0 -95 30.5 -173.5t81.5 -129t115.5 -78t134.5 -27.5zM658 1095q225 0 371.5 -153t146.5 -403q0 -242 -146.5 -397.5t-379.5 -155.5
q-242 0 -386 167.5t-144 463.5v44q0 76 1 126.5t6.5 127.5t16 132t30.5 123t48 119.5t70.5 103.5t97.5 91q48 34 104 58.5t87.5 33.5t104.5 27q161 41 198 117h182q-33 -86 -113.5 -153.5t-189.5 -98.5q-13 -4 -67.5 -19t-75.5 -22t-60 -24t-70 -38q-81 -54 -140.5 -172.5
t-67.5 -295.5q73 109 167 153.5t209 44.5z" />
    <glyph glyph-name="afii10067" unicode="&#x432;" horiz-adv-x="975" 
d="M315 156h174q217 0 217 165q0 75 -53 124.5t-173 49.5h-165v-339zM472 920h-157v-278h157q100 0 141 42.5t41 105.5q0 130 -182 130zM719 566q68 -36 112 -101.5t44 -152.5q0 -312 -369 -312h-356v1077h313q175 0 267.5 -77.5t92.5 -209.5q0 -63 -29 -123.5t-75 -100.5z
" />
    <glyph glyph-name="afii10068" unicode="&#x433;" horiz-adv-x="752" 
d="M150 0v1076h585v-156h-420v-920h-165z" />
    <glyph glyph-name="afii10069" unicode="&#x434;" horiz-adv-x="1115" 
d="M298 157h492v763h-386v-230q0 -172 -29.5 -313.5t-76.5 -219.5zM955 1077v-920h135v-384h-157v227h-756v-227h-156v384h27q83 0 137 146.5t54 386.5v387h716z" />
    <glyph glyph-name="afii10070" unicode="&#x435;" horiz-adv-x="1163" 
d="M295 695h617q-32 115 -116 179t-197 64q-111 0 -191 -63.5t-113 -179.5zM1080 547v-9h-811q0 -169 100 -284t265 -115q142 0 260 104l157 -69q-78 -98 -179 -143t-238 -45q-234 0 -384 155.5t-150 397.5q0 118 39 221.5t106 176.5t159 115t195 42q226 0 353.5 -148.5
t127.5 -398.5z" />
    <glyph glyph-name="afii10072" unicode="&#x436;" horiz-adv-x="1363" 
d="M1296 1077l-334 -500l384 -577h-188l-328 495h-68v-495h-165v495h-67l-329 -495h-187l383 577l-333 500h190l284 -426h59v426h165v-426h60l284 426h190z" />
    <glyph glyph-name="afii10073" unicode="&#x437;" horiz-adv-x="978" 
d="M735 625q84 -59 113.5 -126.5t29.5 -150.5q0 -164 -110.5 -263t-292.5 -99q-266 0 -414 198l114 107q71 -83 135.5 -117.5t164.5 -34.5q97 0 165.5 55t68.5 154q0 191 -217 191h-52v156h26q101 0 141.5 24.5t40.5 88.5q0 53 -46 91.5t-145 38.5q-61 0 -101.5 -15
t-91.5 -61l-110 104q131 128 303 128q67 0 130 -18.5t115 -52.5t83.5 -90t31.5 -125q0 -122 -82 -183z" />
    <glyph glyph-name="afii10074" unicode="&#x438;" horiz-adv-x="1135" 
d="M315 1076v-701l670 738v-1113h-165v700l-670 -736v1112h165z" />
    <glyph glyph-name="afii10075" unicode="&#x439;" horiz-adv-x="1135" 
d="M315 1076v-701l670 738v-1113h-165v700l-670 -736v1112h165zM567 1173q-105 0 -198 59.5t-128 172.5l139 35q61 -135 187 -135q67 0 116 35t73 100l138 -35q-35 -113 -128 -172.5t-199 -59.5z" />
    <glyph glyph-name="afii10076" unicode="&#x43a;" horiz-adv-x="982" 
d="M956 0h-188l-328 494h-125v-494h-165v1077h165v-427h117l284 427h190l-333 -501z" />
    <glyph glyph-name="afii10077" unicode="&#x43b;" horiz-adv-x="1135" 
d="M238 504v573h747v-1077h-165v920h-417v-390q0 -151 -13.5 -248t-49 -166.5t-98.5 -99.5t-161 -30q-36 0 -66 11l32 148q15 -6 35 -6q43 0 73 21t46 52t24.5 84t10.5 97t2 111z" />
    <glyph glyph-name="afii10078" unicode="&#x43c;" horiz-adv-x="1267" 
d="M634 354l333 769l284 -1123h-165l-157 633l-295 -670l-294 670l-157 -633h-165l285 1123z" />
    <glyph glyph-name="afii10079" unicode="&#x43d;" horiz-adv-x="1108" 
d="M793 651v426h165v-1077h-165v494h-478v-494h-165v1077h165v-426h478z" />
    <glyph glyph-name="afii10080" unicode="&#x43e;" horiz-adv-x="1268" 
d="M634 139q156 0 260.5 115t104.5 285t-104.5 284.5t-260.5 114.5q-151 0 -258 -115.5t-107 -283.5t107 -284t258 -116zM634 1095q234 0 384 -157t150 -399t-150 -397.5t-384 -155.5q-229 0 -381.5 156.5t-152.5 396.5t152.5 398t381.5 158z" />
    <glyph glyph-name="afii10081" unicode="&#x43f;" horiz-adv-x="1108" 
d="M150 0v1076h808v-1076h-165v920h-478v-920h-165z" />
    <glyph glyph-name="afii10082" unicode="&#x440;" 
d="M627 140q137 0 220.5 108.5t83.5 290.5q0 189 -80.5 294.5t-223.5 105.5q-155 0 -233.5 -97.5t-78.5 -273.5v-58q0 -181 78 -275.5t234 -94.5zM627 1095q202 0 337.5 -158t135.5 -398q0 -242 -132.5 -397.5t-340.5 -155.5q-189 0 -312 118v-645h-165v1618h165l10 -86
q127 104 302 104z" />
    <glyph glyph-name="afii10083" unicode="&#x441;" horiz-adv-x="1066" 
d="M605 1095q118 0 217 -49.5t167 -141.5l-129 -91q-97 125 -255 125q-104 0 -182.5 -59t-116 -148.5t-37.5 -192.5q0 -174 103.5 -286t259.5 -112q147 0 252 114l130 -99q-54 -56 -98.5 -89t-117.5 -56.5t-166 -23.5q-234 0 -383 154t-149 398q0 153 67 281.5t183.5 202
t254.5 73.5z" />
    <glyph glyph-name="afii10084" unicode="&#x442;" horiz-adv-x="822" 
d="M13 1076h796v-156h-315v-920h-165v920h-316v156z" />
    <glyph glyph-name="afii10085" unicode="&#x443;" horiz-adv-x="1019" 
d="M828 1077h174l-712 -1618h-175l312 713l-407 905h180l315 -698z" />
    <glyph glyph-name="afii10086" unicode="&#x444;" horiz-adv-x="1519" 
d="M677 156v764q-74 -15 -127 -30.5t-109.5 -45t-91.5 -68t-57.5 -99.5t-22.5 -139q0 -169 99.5 -262.5t308.5 -119.5zM842 920v-764q204 27 306 120.5t102 261.5q0 78 -22.5 139t-57.5 99.5t-91.5 68t-109.5 45t-127 30.5zM1419 538q0 -235 -145.5 -370.5t-431.5 -167.5
v-541h-165v541q-286 32 -431.5 167.5t-145.5 370.5q0 230 146.5 368t430.5 170v591h165v-591q284 -32 430.5 -170t146.5 -368z" />
    <glyph glyph-name="afii10087" unicode="&#x445;" horiz-adv-x="1030" 
d="M513 712l250 365h193l-348 -499l401 -578h-193l-303 443l-302 -443h-194l402 578l-349 499h193z" />
    <glyph glyph-name="afii10088" unicode="&#x446;" horiz-adv-x="1150" 
d="M940 1076v-920h176v-384h-157v228h-809v1076h165v-920h461v920h164z" />
    <glyph glyph-name="afii10089" unicode="&#x447;" horiz-adv-x="956" 
d="M641 601v476h165v-1077h-165v432l-205 -53q-89 1 -166 35t-128.5 104.5t-51.5 164.5v394h164v-383q0 -75 57 -114.5t128 -39.5h2z" />
    <glyph glyph-name="afii10090" unicode="&#x448;" horiz-adv-x="1594" 
d="M1444 1077v-1077h-1294v1077h165v-920h400v920h165v-920h399v920h165z" />
    <glyph glyph-name="afii10091" unicode="&#x449;" horiz-adv-x="1639" 
d="M1444 1077v-921h175v-383h-157v227h-1312v1077h165v-921h399v921h165v-921h399v921h166z" />
    <glyph glyph-name="afii10092" unicode="&#x44a;" horiz-adv-x="1032" 
d="M382 156h167q108 0 161 37t53 137q0 77 -52 132.5t-148 55.5l-181 -50v-312zM382 627l174 46q159 -1 267.5 -100t108.5 -251q0 -166 -87.5 -244t-269.5 -78h-358v920h-216v157h381v-450z" />
    <glyph glyph-name="afii10093" unicode="&#x44b;" horiz-adv-x="1277" 
d="M315 157h149q214 0 214 174q0 78 -48.5 132.5t-144.5 55.5l-170 -50v-312zM315 628l162 45q164 0 267 -98t103 -252q0 -162 -95 -242.5t-262 -80.5h-340v1077h165v-449zM962 0v1077h165v-1077h-165z" />
    <glyph glyph-name="afii10094" unicode="&#x44c;" horiz-adv-x="965" 
d="M315 156h167q108 0 161 37.5t53 137.5q0 76 -52 132t-148 56l-181 -50v-313zM315 627l174 47q159 -1 267.5 -100.5t108.5 -250.5q0 -166 -87.5 -244.5t-269.5 -78.5h-358v1077h165v-450z" />
    <glyph glyph-name="afii10095" unicode="&#x44d;" horiz-adv-x="1073" 
d="M465 1094q223 0 365.5 -149.5t142.5 -388.5q0 -258 -144 -414t-373 -156q-121 0 -221 47t-165 118l99 118q132 -130 287 -130q151 0 246 108.5t101 290.5h-425v157h417q-33 112 -120.5 177.5t-209.5 65.5q-128 0 -226 -87l-122 104q80 75 161.5 107t186.5 32z" />
    <glyph glyph-name="afii10096" unicode="&#x44e;" horiz-adv-x="1588" 
d="M963 140q155 0 255.5 114t100.5 285t-100.5 285.5t-255.5 114.5q-148 0 -241 -114t-93 -286t93 -285.5t241 -113.5zM963 1095q233 0 379 -156.5t146 -399.5q0 -242 -146 -397.5t-379 -155.5q-215 0 -351.5 141.5t-150.5 367.5h-146v-495h-165v1077h165v-426h153
q33 200 165.5 322t329.5 122z" />
    <glyph glyph-name="afii10097" unicode="&#x44f;" horiz-adv-x="970" 
d="M646 998l9 79h165v-1077h-165v738q0 81 -58.5 140t-152.5 59q-72 0 -126 -49.5t-54 -140.5q0 -73 57.5 -128t155.5 -55h144l-383 -564h-191l301 432q-46 13 -93.5 42.5t-77.5 64.5q-78 90 -78 208q0 150 95 248.5t244 98.5q126 0 208 -96z" />
    <glyph glyph-name="afii10071" unicode="&#x451;" horiz-adv-x="1155" 
d="M295 695h617q-32 115 -116 179t-197 64q-111 0 -191 -63.5t-113 -179.5zM1080 547v-9h-811q0 -169 100 -284t265 -115q142 0 260 104l157 -69q-78 -98 -179 -143t-238 -45q-234 0 -384 155.5t-150 397.5q0 118 39 221.5t106 176.5t159 115t195 42q226 0 353.5 -148.5
t127.5 -398.5zM728 1427h165v-165h-165v165zM314 1427h165v-165h-165v165z" />
    <glyph glyph-name="uni0459" unicode="&#x459;" horiz-adv-x="1554" 
d="M909 156h148q217 0 217 165q0 75 -53 124.5t-173 49.5h-139v-339zM1039 920h-130v-278h130q101 0 142 42.5t41 105.5q0 58 -42.5 94t-140.5 36zM1286 566q67 -36 110 -101t43 -153q0 -160 -91.5 -236t-273.5 -76h-321l-18 87q-76 -102 -234 -102q-177 0 -284 102.5
t-107 276.5q0 94 43.5 179t131 141.5t199.5 56.5q33 0 69 -6v-155q-23 4 -61 4q-99 0 -158 -65t-59 -155q0 -103 64.5 -164t169.5 -61q101 0 168 63.5t67 144.5v573h-426v156h713q174 0 264.5 -76.5t90.5 -209.5q0 -63 -27.5 -123.5t-72.5 -100.5z" />
    <glyph glyph-name="uni045A" unicode="&#x45a;" horiz-adv-x="1674" 
d="M1359 651v426h165v-1077h-165v495h-460v-495h-157l-17 87q-75 -101 -234 -101q-178 0 -284.5 102t-106.5 276q0 94 43.5 179t131 141.5t199.5 56.5q42 0 69 -6v-155q-21 5 -61 5q-99 0 -158 -65.5t-59 -155.5q0 -103 64.5 -164t169.5 -61q101 0 168 63.5t67 144.5v574
h-426v156h591v-426h460z" />
    <glyph glyph-name="uni045E" unicode="&#x45e;" horiz-adv-x="936" 
d="M465 591h156v329h-113q-124 0 -183.5 -40t-59.5 -124q0 -165 200 -165zM508 1077h278v-1077h-165v434h-77l-292 -434h-195l304 443q-141 38 -201 112.5t-60 200.5q0 154 108.5 237.5t299.5 83.5z" />
    <glyph glyph-name="uni2010" unicode="&#x2010;" horiz-adv-x="853" 
d="M100 504v146h652v-146h-652z" />
    <glyph glyph-name="endash" unicode="&#x2013;" horiz-adv-x="1223" 
d="M120 504v146h983v-146h-983z" />
    <glyph glyph-name="emdash" unicode="&#x2014;" horiz-adv-x="1551" 
d="M120 504v146h1311v-146h-1311z" />
    <glyph glyph-name="quoteleft" unicode="&#x2018;" horiz-adv-x="479" 
d="M329 1308v-179h-179v184q0 87 36 172q25 62 83 139l73 -56q-50 -65 -72 -118q-26 -64 -29 -142h88z" />
    <glyph glyph-name="quoteright" unicode="&#x2019;" horiz-adv-x="479" 
d="M238 1445h-88v179h179v-184q0 -85 -35 -172q-24 -59 -84 -139l-72 56q52 68 72 118q25 61 28 142z" />
    <glyph glyph-name="quotesinglbase" unicode="&#x201a;" horiz-adv-x="477" 
d="M140 0v197h196v-198q0 -87 -35 -172q-24 -60 -84 -140l-81 56q50 66 71 118q26 63 29 139h-96z" />
    <glyph glyph-name="quotedblleft" unicode="&#x201c;" horiz-adv-x="806" 
d="M567 1308h88v-179h-179v184q0 85 35 172q24 59 84 139l72 -56q-52 -68 -72 -118q-25 -61 -28 -142zM329 1308v-179h-179v184q0 87 36 172q25 62 83 139l73 -56q-50 -65 -72 -118q-26 -64 -29 -142h88z" />
    <glyph glyph-name="quotedblright" unicode="&#x201d;" horiz-adv-x="805" 
d="M238 1445h-88v179h179v-184q0 -85 -35 -172q-24 -59 -84 -139l-72 56q52 68 72 118q25 61 28 142zM476 1445v179h179v-184q0 -86 -36 -172q-25 -62 -83 -139l-73 56q50 65 72 118q26 64 29 142h-88z" />
    <glyph glyph-name="quotedblbase" unicode="&#x201e;" horiz-adv-x="805" 
d="M238 0h-88v179h179v-181q0 -85 -35 -172q-24 -59 -84 -139l-72 56q52 68 72 118q25 61 28 139zM476 0v179h179v-181q0 -86 -36 -172q-25 -62 -83 -139l-73 56q50 65 72 118q26 63 29 139h-88z" />
    <glyph glyph-name="dagger" unicode="&#x2020;" horiz-adv-x="678" 
d="M-7 984v176h696v-174v-2h-696zM251 -555v2172h176v-2172h-173h-3z" />
    <glyph glyph-name="bullet" unicode="&#x2022;" horiz-adv-x="639" 
d="M80 583q0 99 70 168.5t169 69.5q98 0 168.5 -70t70.5 -168q0 -100 -70 -169.5t-169 -69.5q-100 0 -169.5 69.5t-69.5 169.5z" />
    <glyph glyph-name="ellipsis" unicode="&#x2026;" horiz-adv-x="1374" 
d="M1046 0v196h197v-196h-197zM588 0v196h197v-196h-197zM130 0v196h197v-196h-197z" />
    <glyph glyph-name="afii61352" unicode="&#x2116;" horiz-adv-x="2534" 
d="M1572 507v152h782v-152h-782zM180 1580l1027 -1172v1123h179v-1578l-1027 1161v-1114h-179v1580zM1964 1384q-91 0 -155.5 -64.5t-64.5 -155.5q0 -90 64.5 -153.5t155.5 -63.5q90 0 154 63.5t64 153.5q0 91 -64 155.5t-154 64.5zM1964 782q-159 0 -271.5 112t-112.5 270
q0 159 112.5 271.5t271.5 112.5q158 0 270 -112.5t112 -271.5q0 -158 -112 -270t-270 -112z" />
    <glyph glyph-name="trademark" unicode="&#x2122;" horiz-adv-x="1954" 
d="M1325 839l323 815l288 -1155h-168l-163 669l-280 -711l-279 711l-163 -669h-169l289 1155zM13 1608h777v-144h-307v-965h-163v965h-307v144z" />
    <glyph glyph-name="minus" unicode="&#x2212;" 
d="M120 504v146h983v-146h-983z" />
    <glyph glyph-name="block" unicode="&#x2588;" horiz-adv-x="1707" 
d="M1358 0h-696l696 1585v-1585zM560 1585h629l-317 -705zM382 0v1585l407 -900l-298 -685h-109z" />
    </font>
</defs>
</svg>
